<svg width="1366" height="1305" viewBox="0 0 1366 1305" fill="none" xmlns="http://www.w3.org/2000/svg">
<path d="M2281 26C2281 -142.704 2214.7 -304.65 2096.39 -424.918C1978.08 -545.185 1817.25 -614.14 1648.57 -616.913C1479.89 -619.686 1316.87 -556.055 1194.68 -439.741C1072.48 -323.426 1000.89 -163.747 995.347 4.86517C989.802 173.478 1050.75 337.515 1165.04 461.607C1279.33 585.699 1437.81 659.903 1606.3 668.218C1774.8 676.534 1939.82 618.296 2065.77 506.061C2191.73 393.826 2268.53 236.586 2279.61 68.2468L2218.46 64.2202C2208.43 216.515 2138.95 358.768 2025 460.305C1911.05 561.843 1761.76 614.531 1609.33 607.008C1456.89 599.484 1313.51 532.353 1210.11 420.089C1106.72 307.824 1051.58 159.421 1056.6 6.87958C1061.62 -145.662 1126.38 -290.122 1236.93 -395.35C1347.48 -500.578 1494.96 -558.145 1647.56 -555.636C1800.17 -553.127 1945.67 -490.745 2052.7 -381.94C2159.73 -273.135 2219.71 -126.624 2219.71 26H2281Z" fill="#635EE8"/>
<circle cx="-60.5" cy="932.5" r="372.5" fill="#635EE8"/>
</svg>
