<svg width="36" height="36" viewBox="0 0 36 36" fill="none" xmlns="http://www.w3.org/2000/svg">
<path id="crayon" d="M29.3635 0.392944C28.591 0.394818 27.8265 0.549884 27.1141 0.849197C26.4018 1.14851 25.7556 1.58615 25.213 2.13686L2.62804 24.7576L2.53949 25.2054L0.976986 33.0738L0.531372 35.1739L2.62947 34.7275L10.4849 33.1625L10.9305 33.0723L33.5154 10.4516C34.0666 9.90895 34.5045 9.26182 34.8034 8.54791C35.1022 7.834 35.2562 7.06762 35.2562 6.29349C35.2562 5.51935 35.1022 4.75297 34.8034 4.03906C34.5045 3.32516 34.0666 2.67802 33.5154 2.13542C32.9725 1.5848 32.326 1.14733 31.6134 0.848262C30.9008 0.549191 30.1361 0.394442 29.3635 0.392944ZM29.3635 3.11968C30.0833 3.11968 30.8089 3.44872 31.5059 4.14829C32.8955 5.53884 32.8955 7.04813 31.5059 8.44012L30.4804 9.42295L26.2385 5.17547L27.2211 4.14829C27.9195 3.44872 28.6436 3.11968 29.3635 3.11968ZM24.2318 7.18833L28.4708 11.4358L11.199 28.7347C10.2665 26.9074 8.78206 25.4214 6.95707 24.4887L24.2318 7.18833ZM5.12891 26.8148C5.97421 27.1555 6.74205 27.6637 7.38632 28.3091C8.03059 28.9544 8.538 29.7235 8.87807 30.5702L4.19055 31.5087L5.12891 26.8148Z" fill="#635EE8"/>
</svg>
