<svg width="61" height="61" viewBox="0 0 61 61" fill="none" xmlns="http://www.w3.org/2000/svg">
<g id="foundation:social-twitter">
<path id="Vector" d="M53.985 15.9332C52.2263 16.7123 50.3607 17.2235 48.4505 17.4497C50.4626 16.2458 51.9682 14.3513 52.6869 12.1195C50.7957 13.2422 48.7261 14.0328 46.568 14.457C45.6664 13.4953 44.5768 12.729 43.3669 12.2056C42.1569 11.6822 40.8524 11.4129 39.5341 11.4143C34.2125 11.4143 29.8973 15.7282 29.8973 21.0511C29.8973 21.8057 29.9827 22.5419 30.1474 23.2477C22.1381 22.8457 15.0377 19.0088 10.2846 13.1778C9.42761 14.6486 8.97728 16.3208 8.97982 18.0231C8.97856 19.6097 9.36924 21.172 10.1171 22.5713C10.865 23.9706 11.947 25.1635 13.2669 26.0439C11.7368 25.9953 10.2405 25.5821 8.90235 24.8386C8.90113 24.8788 8.90113 24.9185 8.90113 24.96C8.90113 29.6277 12.2226 33.5225 16.6304 34.4089C15.2111 34.7931 13.723 34.8494 12.2787 34.5736C13.5048 38.4013 17.0635 41.1884 21.2805 41.2665C17.8669 43.9454 13.6515 45.3984 9.31227 45.3919C8.53452 45.3919 7.76775 45.3468 7.01318 45.2571C11.4194 48.0882 16.5476 49.5909 21.7849 49.5857C39.5103 49.5857 49.2032 34.9024 49.2032 22.1692C49.2032 21.752 49.1935 21.3354 49.1752 20.9212C51.0628 19.5584 52.6917 17.8691 53.985 15.9332Z" fill="white"/>
</g>
</svg>
