<svg width="51" height="51" viewBox="0 0 51 51" fill="none" xmlns="http://www.w3.org/2000/svg">
<g id="simple-line-icons:social-instagram">
<path id="Vector" d="M25.4502 0.199219C29.7002 0.199219 33.1699 0.249023 35.8594 0.348633C38.1504 0.448242 40.1924 0.84668 41.9854 1.54395C43.7119 2.20801 45.2061 3.1709 46.4678 4.43262C47.7295 5.69434 48.6924 7.18848 49.3564 8.91504C50.0537 10.708 50.4521 12.75 50.5518 15.041C50.6514 17.7305 50.7012 21.2002 50.7012 25.4502C50.7012 29.7002 50.6514 33.1699 50.5518 35.8594C50.4521 38.1504 50.0537 40.1924 49.3564 41.9854C48.6924 43.7119 47.7295 45.2061 46.4678 46.4678C45.2061 47.7295 43.7119 48.6924 41.9854 49.3564C40.1924 50.0537 38.1504 50.4521 35.8594 50.5518C33.1699 50.6514 29.7002 50.7012 25.4502 50.7012C21.2002 50.7012 17.7305 50.6514 15.041 50.5518C12.75 50.4521 10.708 50.0537 8.91504 49.3564C7.18848 48.6924 5.69434 47.7295 4.43262 46.4678C3.1709 45.2061 2.20801 43.7119 1.54395 41.9854C0.84668 40.1924 0.448242 38.1504 0.348633 35.8594C0.249023 33.1699 0.199219 29.7002 0.199219 25.4502C0.199219 21.2002 0.249023 17.7305 0.348633 15.041C0.448242 12.75 0.84668 10.708 1.54395 8.91504C2.20801 7.18848 3.1709 5.69434 4.43262 4.43262C5.69434 3.1709 7.18848 2.20801 8.91504 1.54395C10.708 0.84668 12.75 0.448242 15.041 0.348633C17.7305 0.249023 21.2002 0.199219 25.4502 0.199219ZM25.4502 3.48633C21.0342 3.48633 17.4316 3.53613 14.6426 3.63574C12.8496 3.70215 11.1895 4.01758 9.66211 4.58203C7.27148 5.57812 5.57812 7.27148 4.58203 9.66211C4.01758 11.1895 3.70215 12.8496 3.63574 14.6426C3.53613 17.4316 3.48633 21.0342 3.48633 25.4502C3.48633 29.8662 3.53613 33.4688 3.63574 36.2578C3.70215 38.0508 4.01758 39.7109 4.58203 41.2383C5.57812 43.6289 7.27148 45.3223 9.66211 46.3184C11.1895 46.8828 12.8496 47.1982 14.6426 47.2646C17.4316 47.3643 21.0342 47.4141 25.4502 47.4141C29.8662 47.4141 33.4688 47.3643 36.2578 47.2646C38.0508 47.1982 39.7109 46.8828 41.2383 46.3184C43.6289 45.3223 45.3223 43.6289 46.3184 41.2383C46.8828 39.7109 47.1982 38.0508 47.2646 36.2578C47.3643 33.4688 47.4141 29.8662 47.4141 25.4502C47.4141 21.0342 47.3643 17.4316 47.2646 14.6426C47.1982 12.8496 46.8828 11.1895 46.3184 9.66211C45.3223 7.27148 43.6289 5.57812 41.2383 4.58203C39.7109 4.01758 38.0508 3.70215 36.2578 3.63574C33.4688 3.53613 29.8662 3.48633 25.4502 3.48633ZM25.4502 35.5605C28.2393 35.5605 30.6216 34.5728 32.5972 32.5972C34.5728 30.6216 35.5605 28.2393 35.5605 25.4502C35.5605 22.6611 34.5728 20.2788 32.5972 18.3032C30.6216 16.3276 28.2393 15.3398 25.4502 15.3398C22.6611 15.3398 20.2788 16.3276 18.3032 18.3032C16.3276 20.2788 15.3398 22.6611 15.3398 25.4502C15.3398 28.2393 16.3276 30.6216 18.3032 32.5972C20.2788 34.5728 22.6611 35.5605 25.4502 35.5605ZM25.4502 12.501C29.0361 12.501 32.0908 13.7627 34.6143 16.2861C37.1377 18.8096 38.3994 21.8643 38.3994 25.4502C38.3994 29.0361 37.1377 32.0908 34.6143 34.6143C32.0908 37.1377 29.0361 38.3994 25.4502 38.3994C21.8643 38.3994 18.8096 37.1377 16.2861 34.6143C13.7627 32.0908 12.501 29.0361 12.501 25.4502C12.501 21.8643 13.7627 18.8096 16.2861 16.2861C18.8096 13.7627 21.8643 12.501 25.4502 12.501ZM41.9854 12.0029C41.9854 12.833 41.6865 13.5386 41.0889 14.1196C40.4912 14.7007 39.7607 14.9912 38.8975 14.9912C38.0674 14.9912 37.3618 14.7007 36.7808 14.1196C36.1997 13.5386 35.9092 12.833 35.9092 12.0029C35.9092 11.1396 36.1997 10.4092 36.7808 9.81152C37.3618 9.21387 38.0674 8.91504 38.8975 8.91504C39.7275 8.91504 40.4497 9.22217 41.064 9.83643C41.6782 10.4507 41.9854 11.1729 41.9854 12.0029Z" fill="white"/>
</g>
</svg>
